# xmcd
#
# Track frame offsets:
#	150
#	27158
#	58783
#	100205
#	124953
#	158302
#	195637
#	215476
#	248265
#
# Disc length: 4161 seconds
#
# Revision: 1
# Processed by: cddbd v1.5.2PL0 Copyright (c) Steve Scherf et al.
# Submitted via: audiograbber 1.83.01
#
DISCID=6e103f09
DTITLE=Freddie King - Texas Flyer 1974 - 1976 Disc 4
DYEAR=2010
DGENRE=Blues
TTITLE0=Messin' With The Kid
TTITLE1=Sweet Home Chicago
TTITLE2=You're The One
TTITLE3=Woke Up This Morning
TTITLE4=Funk Instrumental
TTITLE5=Going Down
TTITLE6=The Things That I Used To Do
TTITLE7=Come On ( Let The Good Times Roll )
TTITLE8=Call It Stormy Monday ( But Tuesday Is Just As Bad ) - Little Bluebird
EXTD=
EXTT0=
EXTT1=
EXTT2=
EXTT3=
EXTT4=
EXTT5=
EXTT6=
EXTT7=
EXTT8=
PLAYORDER=
